{"title":"Endeavour S03E03 - Prey x264 RB58.mp4","uid":13244435,"size":1015429131,"categoryP":"video","categoryS":"tv_shows","magnet":"?xt=urn:btih:7f6319ad40cf2f2ca67ae58c58e62655715422dc&amp;dn=Endeavour+S03E03+-+Prey+x264+RB58.mp4&amp;tr=udp%3A%2F%2Ftracker.leechers-paradise.org%3A6969&amp;tr=udp%3A%2F%2Fzer0day.ch%3A1337&amp;tr=udp%3A%2F%2Fopen.demonii.com%3A1337&amp;tr=udp%3A%2F%2Ftracker.coppersurfer.tk%3A6969&amp;tr=udp%3A%2F%2Fexodus.desync.com%3A6969","seeders":1,"leechers":0,"uploader":"RedBaron58","files":1,"time":1453080348,"description":"Endeavour S03E03 - Prey x264 mp4\r\n \nhttp://www.imdb.com/title/tt2701582/\r\n\r\nTrailer:\r\n\r\n\r\nPlease be patient My intial upload speed is limited.\r\nThank you for your kind comments and feedback on my other torrents, your feedback is welcome.\r\n\r\n\r\nAbout the Episode:\r\nThe detective investigates the disappearance of a Dutch au pair, which seems connected to rivalry \r\namid the city's academics. His search leads him to a family estate in the Oxfordshire countryside \r\nwhere he meets three siblings divided by personal demons and shared loss. \r\nEndeavour suspects there is a link between the disappearance and an unsolved case from years before, \r\nbut as the investigation continues, conflict erupts between his fellow officers.\r\n \r\nShaun Evans stars as the young Inspector Morse in the third series of the detective drama\r\n\r\n\r\nI hope you enjoy.\r\n\r\n\r\nTechnical:\r\n\r\nGeneral\r\nComplete name                            : G:Endeavour S03E03 - Prey x264 RB58.mp4\r\nFormat                                   : MPEG-4\r\nFormat profile                           : Base Media\r\nCodec ID                                 : isom\r\nFile size                                : 968 MiB\r\nDuration                                 : 1h 28mn\r\nOverall bit rate                         : 1 522 Kbps\r\nWriting application                      : Lavf54.63.104\r\n\r\nVideo\r\nID                                       : 1\r\nFormat                                   : AVC\r\nFormat/Info                              : Advanced Video Codec\r\nFormat profile                           :   \r\nFormat settings, CABAC                   : Yes\r\nFormat settings, ReFrames                : 4 frames\r\nCodec ID                                 : avc1\r\nCodec ID/Info                            : Advanced Video Coding\r\nDuration                                 : 1h 28mn\r\nBit rate                                 : 1 400 Kbps\r\nWidth                                    : 832 pixels\r\nHeight                                   : 468 pixels\r\nDisplay aspect ratio                     : 16:9\r\nFrame rate mode                          : Constant\r\nFrame rate                               : 25.000 fps\r\nColor space                              : YUV\r\nChroma subsampling                       : 4:2:0\r\nBit depth                                : 8 bits\r\nScan type                                : Progressive\r\nBits/(Pixel*Frame)                       : 0.144\r\nStream size                              : 891 MiB (92%)\r\nWriting library                          : x264 core 123 r2189 35cf912\r\nEncoding settings                        : cabac=1 / ref=3 / deblock=1:0:0\r\n\r\nAudio\r\nID                                       : 2\r\nFormat                                   : AAC\r\nFormat/Info                              : Advanced Audio Codec\r\nFormat profile                           : LC\r\nCodec ID                                 : 40\r\nDuration                                 : 1h 28mn\r\nBit rate mode                            : Constant\r\nBit rate                                 : 113 Kbps\r\nChannel(s)                               : 2 channels\r\nChannel positions                        : Front: L R\r\nSampling rate                            : 48.0 KHz\r\nCompression mode                         : Lossy\r\nStream size                              : 72.0 MiB (7%)","torrent":{"xt":"urn:btih:7f6319ad40cf2f2ca67ae58c58e62655715422dc","amp;dn":"Endeavour+S03E03+-+Prey+x264+RB58.mp4","amp;tr":["udp%3A%2F%2Ftracker.leechers-paradise.org%3A6969","udp%3A%2F%2Fzer0day.ch%3A1337","udp%3A%2F%2Fopen.demonii.com%3A1337","udp%3A%2F%2Ftracker.coppersurfer.tk%3A6969","udp%3A%2F%2Fexodus.desync.com%3A6969"],"infoHash":"7f6319ad40cf2f2ca67ae58c58e62655715422dc","infoHashBuffer":{"type":"Buffer","data":[127,99,25,173,64,207,47,44,166,122,229,140,88,230,38,85,113,84,34,220]},"announce":[],"urlList":[]}}